<svg width="82" height="89" viewBox="0 0 82 89" fill="none" xmlns="http://www.w3.org/2000/svg"><g filter="url(#a)"><path fill-rule="evenodd" clip-rule="evenodd" d="M41 70a22 22 0 1 0 0-44 22 22 0 0 0 0 44Z" fill="#000" fill-opacity=".01"/></g><g filter="url(#b)"><path fill-rule="evenodd" clip-rule="evenodd" d="M41 70a30 30 0 1 0 0-60 30 30 0 0 0 0 60Z" fill="#2196F3"/><path d="M69 40a28 28 0 1 1-56 0 28 28 0 0 1 56 0Z" stroke="#42A5F5" stroke-width="4"/></g><mask id="c" style="mask-type:alpha" maskUnits="userSpaceOnUse" x="11" y="10" width="60" height="60"><path fill-rule="evenodd" clip-rule="evenodd" d="M41 70a30 30 0 1 0 0-60 30 30 0 0 0 0 60Z" fill="#fff"/></mask><g mask="url(#c)" stroke="#42A5F5" stroke-width="4"><path d="M13.71 32.88h53.83M13.71 48.63h53.83" stroke-linecap="square"/><path d="M40.25 14.5s-9.96 11.58-9.75 26.25c.22 14.67 9.75 24.75 9.75 24.75M41 14.5s9.96 11.58 9.75 26.25C50.53 55.42 41 65.5 41 65.5" stroke-linecap="round" stroke-linejoin="round"/></g><path fill-rule="evenodd" clip-rule="evenodd" d="M51.2 29.03c.2-.12.42-.19.65-.2 1.01-.07 3.95-.15 4.58.95.64 1.1-.9 3.6-1.46 4.45-.13.2-.3.35-.5.46l-6.08 3.51.84 17.1c.02.24-.1.47-.31.6l-1.25.74a.65.65 0 0 1-.55.06l-.94-.33a.65.65 0 0 1-.37-.32l-6.46-12.63-6.37 3.68-.68 4.67a.65.65 0 0 1-.66.55h-.5a.65.65 0 0 1-.58-.4l-1.79-4c-1.23.03-2.38-.09-2.7-.63-.3-.53.17-1.59.82-2.63l-2.56-3.53a.65.65 0 0 1-.04-.7l.24-.43c.16-.29.5-.41.8-.3l4.37 1.74 6.38-3.68-7.66-11.83a.65.65 0 0 1-.1-.48l.2-.98a.65.65 0 0 1 .32-.45l1.27-.7c.21-.12.47-.11.67.02l14.3 9.22 6.11-3.53Z" fill="#fff"/><mask id="d" style="mask-type:alpha" maskUnits="userSpaceOnUse" x="24" y="23" width="33" height="34"><path fill-rule="evenodd" clip-rule="evenodd" d="M51.2 29.03c.2-.12.42-.19.65-.2 1.01-.07 3.95-.15 4.58.95.64 1.1-.9 3.6-1.46 4.45-.13.2-.3.35-.5.46l-6.08 3.51.84 17.1c.02.24-.1.47-.31.6l-1.25.74a.65.65 0 0 1-.55.06l-.94-.33a.65.65 0 0 1-.37-.32l-6.46-12.63-6.37 3.68-.68 4.67a.65.65 0 0 1-.66.55h-.5a.65.65 0 0 1-.58-.4l-1.79-4c-1.23.03-2.38-.09-2.7-.63-.3-.53.17-1.59.82-2.63l-2.56-3.53a.65.65 0 0 1-.04-.7l.24-.43c.16-.29.5-.41.8-.3l4.37 1.74 6.38-3.68-7.66-11.83a.65.65 0 0 1-.1-.48l.2-.98a.65.65 0 0 1 .32-.45l1.27-.7c.21-.12.47-.11.67.02l14.3 9.22 6.11-3.53Z" fill="#fff"/></mask><g mask="url(#d)"><path fill="#EBECF2" d="m45.54 30.79.66 1.13-10.75 6.2-.66-1.13z"/><path fill-rule="evenodd" clip-rule="evenodd" d="M48.92 55.9c.2-.13.33-.36.31-.6l-.87-17.66-9.23 5.34 6.68 13.07c.08.15.2.26.37.32l.94.33c.19.06.39.04.55-.06l1.25-.75Z" fill="#DEE1E3"/><path opacity=".4" fill-rule="evenodd" clip-rule="evenodd" d="m28.84 47.8-.1.05 1.82 4.08c.1.23.33.38.58.38l.5.01c.33 0 .61-.23.66-.55l.72-4.94-.46.27c-.14.08-.3.15-.46.18-.55.12-1.95.42-3.26.52Z" fill="#DEE1E3"/><path fill-rule="evenodd" clip-rule="evenodd" d="m39.25 43.21 9.13-5.27.1 2.01-7.52 6.6-1.71-3.34Z" fill="#C5C6CC"/><path fill-rule="evenodd" clip-rule="evenodd" d="M57.48 32.95 27.7 50.15s-.88-1.59-1.61-2.86a.87.87 0 0 1-.03-.04c1.36.1 4.08-.01 6.72-1.54l20.62-11.9c2.3-1.33 2.85-3.04 3.16-3.78.48 1.29.93 2.92.93 2.92Z" fill="#DEE1E3"/></g><defs><filter id="a" x="8" y="23" width="66" height="66" filterUnits="userSpaceOnUse" color-interpolation-filters="sRGB"><feFlood flood-opacity="0" result="BackgroundImageFix"/><feColorMatrix in="SourceAlpha" values="0 0 0 0 0 0 0 0 0 0 0 0 0 0 0 0 0 0 127 0" result="hardAlpha"/><feOffset dy="8"/><feGaussianBlur stdDeviation="5.5"/><feColorMatrix values="0 0 0 0 0.215686 0 0 0 0 0.407843 0 0 0 0 0.556863 0 0 0 0.25 0"/><feBlend in2="BackgroundImageFix" result="effect1_dropShadow_1_705"/><feBlend in="SourceGraphic" in2="effect1_dropShadow_1_705" result="shape"/></filter><filter id="b" x="0" y="0" width="82" height="82" filterUnits="userSpaceOnUse" color-interpolation-filters="sRGB"><feFlood flood-opacity="0" result="BackgroundImageFix"/><feColorMatrix in="SourceAlpha" values="0 0 0 0 0 0 0 0 0 0 0 0 0 0 0 0 0 0 127 0" result="hardAlpha"/><feOffset dy="1"/><feGaussianBlur stdDeviation="5.5"/><feColorMatrix values="0 0 0 0 0.215686 0 0 0 0 0.407843 0 0 0 0 0.556863 0 0 0 0.3 0"/><feBlend in2="BackgroundImageFix" result="effect1_dropShadow_1_705"/><feBlend in="SourceGraphic" in2="effect1_dropShadow_1_705" result="shape"/></filter></defs></svg>